<svg xmlns="http://www.w3.org/2000/svg" viewBox="0 0 32 32" width="32" height="32">
  <defs>
    <linearGradient id="fg" x1="0%" y1="0%" x2="100%" y2="100%">
      <stop offset="0%" stop-color="#8B5CF6"/>
      <stop offset="100%" stop-color="#0DD9B0"/>
    </linearGradient>
  </defs>
  <!-- Background -->
  <rect width="32" height="32" rx="7" fill="#0C0917"/>
  <!-- Primary user -->
  <circle cx="18" cy="10" r="4" fill="url(#fg)"/>
  <path d="M18 15 C14 15, 10 18, 10 22 L10 23 C10 24, 11 24.5, 12 24.5 L24 24.5 C25 24.5, 26 24, 26 23 L26 22 C26 18, 22 15, 18 15Z" fill="url(#fg)"/>
  <!-- Ghost user behind -->
  <circle cx="13" cy="12" r="3" fill="#0DD9B0" opacity="0.35"/>
  <path d="M13 16 C10 16, 7 18.5, 7 21.5 L7 22.5 C7 23.2, 7.5 23.5, 8 23.5 L18 23.5" fill="#0DD9B0" opacity="0.3"/>
</svg>
