<svg xmlns="http://www.w3.org/2000/svg" viewBox="0 0 512 512" width="512" height="512">
  <defs>
    <linearGradient id="brandGrad" x1="0%" y1="0%" x2="100%" y2="100%">
      <stop offset="0%" stop-color="#8B5CF6"/>
      <stop offset="100%" stop-color="#0DD9B0"/>
    </linearGradient>
    <linearGradient id="glowGrad" x1="0%" y1="0%" x2="100%" y2="100%">
      <stop offset="0%" stop-color="#8B5CF6" stop-opacity="0.3"/>
      <stop offset="100%" stop-color="#0DD9B0" stop-opacity="0.3"/>
    </linearGradient>
  </defs>
  <!-- Background rounded square -->
  <rect width="512" height="512" rx="108" fill="#0C0917"/>
  <!-- Primary user silhouette (front, larger) -->
  <circle cx="280" cy="168" r="52" fill="url(#brandGrad)"/>
  <path d="M280 232 C230 232, 176 268, 176 328 L176 344 C176 356, 186 364, 198 364 L362 364 C374 364, 384 356, 384 344 L384 328 C384 268, 330 232, 280 232Z" fill="url(#brandGrad)"/>
  <!-- Secondary user silhouette (behind, offset - the "sim" user) -->
  <circle cx="208" cy="186" r="44" fill="#0DD9B0" opacity="0.35"/>
  <path d="M208 240 C166 240, 120 270, 120 322 L120 336 C120 346, 128 354, 138 354 L278 354 C288 354, 296 346, 296 336 L296 322 C296 270, 250 240, 208 240Z" fill="#0DD9B0" opacity="0.3"/>
  <!-- Tertiary ghost user (furthest back - multiple sim users) -->
  <circle cx="160" cy="202" r="32" fill="#8B5CF6" opacity="0.18"/>
  <path d="M160 242 C130 242, 96 264, 96 302 L96 312 C96 320, 102 326, 110 326 L210 326 C218 326, 224 320, 224 312 L224 302 C224 264, 190 242, 160 242Z" fill="#8B5CF6" opacity="0.15"/>
</svg>
